<?xml version="1.0" encoding="utf-8"?>
<!-- Generator: Adobe Illustrator 27.3.1, SVG Export Plug-In . SVG Version: 6.00 Build 0)  -->
<svg version="1.1" id="Layer_1" xmlns="http://www.w3.org/2000/svg" xmlns:xlink="http://www.w3.org/1999/xlink" x="0px" y="0px"
	 viewBox="0 0 5010 1200" style="enable-background:new 0 0 5010 1200;" xml:space="preserve">
<style type="text/css">
	.st0{fill:#00BFFF;}
	.st1{fill:#00FFBF;}
	.st2{fill:#00FFD6;}
	.st3{fill:#00DFDF;}
	.st4{fill:#00007F;}
</style>
<g>
	<g>
		<polygon class="st0" points="285.76,465.91 285.76,842.92 448.99,734.09 448.99,357.08 		"/>
		<polygon class="st1" points="163.33,1065.91 244.95,1011.5 244.95,917.25 163.33,971.66 		"/>
		<polygon class="st2" points="571.42,134.09 489.8,188.5 489.8,282.75 571.42,228.34 		"/>
		<polygon class="st3" points="285.76,984.29 571.42,793.84 571.42,275.46 489.8,329.88 489.8,754 285.76,890.04 		"/>
		<polygon class="st1" points="448.99,74.33 40.91,346.41 40.91,1006.16 122.53,951.75 122.53,386.24 448.99,168.58 		"/>
		<polygon class="st1" points="612.22,813.75 285.76,1031.42 285.76,1125.67 693.84,853.59 693.84,193.84 612.22,248.25 		"/>
		<polygon class="st3" points="448.99,215.71 163.33,406.16 163.33,924.54 244.95,870.12 244.95,446 448.99,309.96 		"/>
		<path class="st4" d="M612.22,201.13V59.75L489.8,141.38V0L0.1,326.49v754l122.42-81.62v141.38l122.42-81.62V1200l489.7-326.49
			v-754L612.22,201.13z M489.8,188.5l81.62-54.42v94.25l-81.62,54.42V188.5z M489.8,329.88l81.62-54.42v518.38L285.76,984.29v-94.25
			L489.8,754V329.88z M285.76,842.92v-377l163.23-108.83v377L285.76,842.92z M122.53,951.75l-81.62,54.42V346.41L448.99,74.33v94.25
			L122.53,386.24V951.75z M244.95,1011.5l-81.62,54.42v-94.25l81.62-54.42V1011.5z M244.95,870.12l-81.62,54.42V406.16
			l285.66-190.45v94.25L244.95,446V870.12z M693.84,853.59l-408.08,272.08v-94.25l326.46-217.66v-565.5l81.62-54.42V853.59z"/>
	</g>
	<path class="st4" d="M1562.77,442.03c25.53-14.92,56.67-22.37,93.4-22.37v80.92h-20.67c-87.79,0-131.71,47.63-131.71,142.91V900
		h-78.32V428.26h78.32v76.64C1517.58,477.91,1537.22,456.98,1562.77,442.03z"/>
	<path class="st4" d="M1789.14,877.63c-35.88-20.08-64-48.64-84.36-85.67c-20.38-37-30.57-79.91-30.57-128.68
		c0-48.21,10.47-90.84,31.42-127.83c20.95-37.03,49.51-65.42,85.65-85.24c36.16-19.79,76.62-29.67,121.39-29.67
		s85.21,9.88,121.37,29.67c36.16,19.82,64.7,48.08,85.65,84.82s31.42,79.49,31.42,128.26c0,48.77-10.76,91.69-32.28,128.68
		c-21.51,37.03-50.65,65.58-87.37,85.67c-36.73,20.08-77.47,30.13-122.24,30.13C1865.02,907.75,1824.99,897.71,1789.14,877.63z
		 M1988.42,819.08c24.66-13.18,44.6-32.97,59.83-59.4c15.19-26.36,22.8-58.52,22.8-96.4c0-37.88-7.46-70-22.37-96.43
		c-14.93-26.36-34.43-46.06-58.53-58.94c-24.11-12.92-50.23-19.36-78.34-19.36c-28.7,0-54.95,6.44-78.77,19.36
		c-23.81,12.89-42.9,32.58-57.24,58.94c-14.34,26.43-21.52,58.55-21.52,96.43c0,38.47,7.02,70.88,21.1,97.28
		c14.05,26.4,32.84,46.06,56.38,58.94c23.53,12.92,49.36,19.4,77.47,19.4S1963.73,832.29,1988.42,819.08z"/>
	<path class="st4" d="M2580.67,471.73c35.57,34.74,53.37,84.82,53.37,150.24V900h-77.47V633.15c0-47.07-11.78-83.08-35.29-108.04
		c-23.53-24.96-55.67-37.45-96.41-37.45c-41.31,0-74.19,12.92-98.57,38.76c-24.39,25.81-36.59,63.39-36.59,112.75V900h-78.32V428.26
		h78.32v67.15c15.5-24.11,36.59-42.75,63.28-55.93c26.69-13.21,56.08-19.82,88.24-19.82
		C2498.58,419.65,2545.08,437.02,2580.67,471.73z"/>
	<path class="st4" d="M2814.81,492.83v278.04c0,22.96,4.87,39.19,14.64,48.64c9.75,9.49,26.69,14.23,50.78,14.23h57.68V900h-70.59
		c-43.62,0-76.33-10.04-98.13-30.13c-21.82-20.08-32.73-53.09-32.73-99.01V492.83h-61.12v-64.57h61.12V309.49h78.34v118.77h123.1
		v64.57H2814.81z"/>
	<path class="st4" d="M3511.63,336.6c47.92,24.4,84.65,59.24,110.2,104.57c25.51,45.34,38.3,98.72,38.3,160.12
		c0,61.43-12.79,114.65-38.3,159.69c-25.55,45.04-62.28,79.49-110.2,103.3c-47.92,23.81-104.59,35.72-170.01,35.72h-186.79V300
		h186.79C3407.04,300,3463.71,312.2,3511.63,336.6z M3518.96,773.9c40.74-41.05,61.12-98.59,61.12-172.61
		c0-74.58-20.53-132.84-61.56-174.74s-99.99-62.84-176.9-62.84h-108.47v471.71h108.47C3419.09,835.43,3478.2,814.92,3518.96,773.9z"
		/>
	<path class="st4" d="M3827.56,877.63c-35.88-20.08-64-48.64-84.36-85.67c-20.38-37-30.57-79.91-30.57-128.68
		c0-48.21,10.47-90.84,31.42-127.83c20.95-37.03,49.51-65.42,85.65-85.24c36.16-19.79,76.62-29.67,121.39-29.67
		s85.21,9.88,121.37,29.67c36.16,19.82,64.7,48.08,85.65,84.82s31.42,79.49,31.42,128.26c0,48.77-10.76,91.69-32.28,128.68
		c-21.51,37.03-50.65,65.58-87.37,85.67c-36.73,20.08-77.47,30.13-122.24,30.13C3903.45,907.75,3863.41,897.71,3827.56,877.63z
		 M4026.85,819.08c24.66-13.18,44.6-32.97,59.83-59.4c15.19-26.36,22.8-58.52,22.8-96.4c0-37.88-7.46-70-22.37-96.43
		c-14.93-26.36-34.43-46.06-58.53-58.94c-24.11-12.92-50.23-19.36-78.34-19.36c-28.7,0-54.95,6.44-78.77,19.36
		c-23.81,12.89-42.9,32.58-57.24,58.94c-14.34,26.43-21.52,58.55-21.52,96.43c0,38.47,7.02,70.88,21.1,97.28
		c14.05,26.4,32.84,46.06,56.38,58.94c23.53,12.92,49.36,19.4,77.47,19.4S4002.15,832.29,4026.85,819.08z"/>
	<path class="st4" d="M4356.96,877.63c-35.88-20.08-64-48.64-84.36-85.67c-20.38-37-30.57-79.91-30.57-128.68
		c0-48.21,10.47-90.84,31.42-127.83c20.95-37.03,49.51-65.42,85.65-85.24c36.16-19.79,76.62-29.67,121.39-29.67
		s85.21,9.88,121.37,29.67c36.16,19.82,64.7,48.08,85.65,84.82s31.42,79.49,31.42,128.26c0,48.77-10.76,91.69-32.28,128.68
		c-21.51,37.03-50.65,65.58-87.37,85.67c-36.73,20.08-77.47,30.13-122.24,30.13C4432.84,907.75,4392.81,897.71,4356.96,877.63z
		 M4556.24,819.08c24.66-13.18,44.6-32.97,59.83-59.4c15.19-26.36,22.8-58.52,22.8-96.4c0-37.88-7.46-70-22.37-96.43
		c-14.93-26.36-34.43-46.06-58.53-58.94c-24.11-12.92-50.23-19.36-78.34-19.36c-28.7,0-54.95,6.44-78.77,19.36
		c-23.81,12.89-42.9,32.58-57.24,58.94c-14.34,26.43-21.52,58.55-21.52,96.43c0,38.47,7.02,70.88,21.1,97.28
		c14.05,26.4,32.84,46.06,56.38,58.94c23.53,12.92,49.36,19.4,77.47,19.4S4531.55,832.29,4556.24,819.08z"/>
	<path class="st4" d="M4916.49,442.03c25.53-14.92,56.67-22.37,93.4-22.37v80.92h-20.67c-87.79,0-131.71,47.63-131.71,142.91V900
		h-78.32V428.26h78.32v76.64C4871.3,477.91,4890.95,456.98,4916.49,442.03z"/>
	<path class="st4" d="M1373.8,300v63.72h-260.83V566h211.76v63.72h-211.76V900h-78.32V300H1373.8z"/>
</g>
</svg>
